<svg width="129" height="60" fill="none" xmlns="http://www.w3.org/2000/svg"><path fill-rule="evenodd" clip-rule="evenodd" d="M0 21.886h129V0H0v21.886zm12.166-4.216c1.132.934 2.547 1.238 3.962 1.238.413 0 .849-.021 1.24-.065l.98-.195c.26-.066.544-.152.805-.24.12-.043.234-.086.348-.13.114-.043.229-.087.348-.13l.131-.044v-2.39h-.522l-.044.043a8.322 8.322 0 01-.24.163 8.956 8.956 0 00-.239.163 5.38 5.38 0 01-.609.348 4.26 4.26 0 01-.696.275l-.088.03c-.304.086-.63.13-.957.13-.327 0-.653-.044-.958-.153a2.479 2.479 0 01-.87-.413c-.283-.217-.48-.5-.632-.825-.195-.37-.26-.826-.26-1.261 0-.413.065-.848.239-1.217.152-.326.348-.609.609-.826.261-.196.544-.37.849-.478a3.96 3.96 0 011.001-.13c.305 0 .61.043.892.13a4.703 4.703 0 011.437.652c.174.108.326.217.479.326l.065.043h.544v-2.412l-.13-.044a4.536 4.536 0 00-.697-.26 6.053 6.053 0 00-.827-.261 7.964 7.964 0 00-1.001-.152 10.652 10.652 0 00-1.175-.066c-1.437 0-2.873.326-3.983 1.261-1.045.913-1.48 2.086-1.48 3.434 0 1.37.413 2.586 1.48 3.456zm88.235-5.825h2.177v6.89h3.177v-9.02h-8.314l-.022.24a40.254 40.254 0 00-.043 1.63l-.033.632c-.01.21-.022.422-.033.628a25.6 25.6 0 01-.098 1.237l-.01.11a6.752 6.752 0 01-.174.957c-.088.413-.262.825-.61 1.065a.578.578 0 01-.305.108l-.05.008c-.132.019-.25.036-.385.036h-.652v2.347l.217.022c.087.01.174.016.261.021.087.006.174.011.261.022.13 0 .256.006.381.011.125.005.25.01.38.01.37 0 .72-.064 1.09-.173.326-.109.652-.26.935-.478a3.9 3.9 0 00.522-.522c.218-.282.392-.608.545-.934.186-.413.293-.865.397-1.3l.016-.07c.152-.652.218-1.304.261-1.956.022-.282.044-.565.066-.826 0-.239.021-.478.043-.695zM86.45 17.278h3.417l.522 1.457h3.613l-3.983-9.02h-3.635l-3.983 9.02h3.526l.523-1.457zm1.72-4.803l.935 2.652h-1.893l.957-2.652zm22.591 4.803h3.417l.523 1.457h3.612l-3.961-9.02h-3.656l-3.983 9.02h3.526l.522-1.457zm1.72-4.803l.935 2.652h-1.893l.958-2.652zM30.993 17.67c1.023-.891 1.458-2.087 1.458-3.456 0-1.348-.435-2.543-1.458-3.434-1.11-.935-2.525-1.239-3.94-1.239-1.414 0-2.85.304-3.939 1.239-1.023.913-1.458 2.108-1.458 3.434 0 1.348.435 2.543 1.458 3.434 1.088.956 2.525 1.26 3.94 1.26 1.414 0 2.83-.304 3.94-1.238zm-5.898-4.673c.109-.283.261-.565.479-.783.195-.195.413-.37.674-.456.261-.087.544-.13.806-.13.283 0 .566.065.827.152.26.087.479.239.674.434.218.218.349.5.457.783.153.391.196.826.196 1.217 0 .391-.043.848-.174 1.217-.109.283-.26.565-.479.783a1.719 1.719 0 01-.674.434 2.15 2.15 0 01-.827.152c-.283 0-.544-.043-.806-.13-.26-.087-.5-.24-.696-.435-.218-.239-.37-.5-.479-.804-.13-.37-.174-.804-.174-1.217 0-.391.043-.826.196-1.217zm13.733-1.152h2.199v6.89h3.177v-9.02h-8.336v.24l-.065 1.63c0 .412-.022.847-.043 1.26-.022.456-.066.89-.131 1.347a6.748 6.748 0 01-.152.957c-.087.413-.283.825-.61 1.065a.587.587 0 01-.326.108 2.66 2.66 0 01-.414.044h-.653v2.347l.218.022c.087.01.174.016.261.021.087.006.174.011.261.022.12 0 .245.006.37.011.125.005.25.01.37.01.37 0 .74-.064 1.088-.173.349-.109.675-.26.936-.478.148-.115.283-.254.415-.39.043-.044.086-.089.13-.132.217-.282.391-.608.522-.934.196-.435.326-.913.435-1.37.13-.652.218-1.304.261-1.956.022-.282.044-.565.044-.826.022-.239.043-.478.043-.695zm16.716 5.825c1.023-.891 1.458-2.087 1.458-3.456 0-1.348-.435-2.543-1.458-3.434-1.11-.935-2.525-1.239-3.94-1.239-1.414 0-2.85.304-3.94 1.239-1.022.913-1.457 2.108-1.457 3.434 0 1.348.435 2.543 1.458 3.434 1.088.956 2.525 1.26 3.94 1.26 1.414 0 2.829-.304 3.939-1.238zm-5.898-4.673a2.22 2.22 0 01.478-.783c.196-.195.414-.37.675-.456.261-.087.544-.13.805-.13.283 0 .544.065.827.152.262.087.48.239.675.434.218.218.348.5.457.783.152.391.196.826.196 1.217 0 .391-.044.848-.174 1.217-.109.283-.261.565-.479.783a1.719 1.719 0 01-.675.434 2.15 2.15 0 01-.827.152c-.283 0-.544-.043-.805-.13-.261-.087-.5-.24-.696-.435-.218-.239-.37-.5-.48-.804-.13-.37-.173-.804-.173-1.217 0-.391.043-.826.195-1.217zm15.8 5.499l1.524-4v4.239h3.156v-9.02h-3.504l-2.176 5.325-2.199-5.325h-3.482v9.02h3.004v-4.239l1.523 4h2.155zm10.47-5.586v-1.065h5.07v-2.13H72.76v9.02h4.614c.588 0 1.219-.044 1.785-.174.5-.109.979-.305 1.414-.587.37-.24.675-.565.893-.935.217-.39.326-.826.326-1.282a2.72 2.72 0 00-.283-1.239c-.196-.413-.5-.717-.892-.956a3.818 3.818 0 00-1.458-.543 11.52 11.52 0 00-1.742-.11h-1.501zm2.416 2.347c.065.065.13.152.152.24a.871.871 0 01.065.325c0 .261-.13.457-.37.587-.326.196-.783.24-1.153.24h-1.11v-1.674h1.11c.26 0 .587.021.87.087.13.043.305.108.436.195zM0 59.921h129V24.038H0v35.883zm62.4-12.345c2.329-2.13 3.243-4.934 3.243-8.041 0-3.087-.914-5.912-3.243-8.02-2.416-2.195-5.572-2.913-8.771-2.913-3.2 0-6.378.718-8.793 2.934-2.307 2.108-3.222 4.912-3.222 7.998 0 3.087.936 5.869 3.222 7.999 2.415 2.216 5.571 2.956 8.793 2.956 3.199 0 6.355-.74 8.77-2.913zm-36.413 2.326l3.679-9.672v10.237h7.639V28.602h-8.467l-5.288 12.15-5.311-12.15H9.794v21.865h7.291V40.23l3.679 9.672h5.223zm81.314-15.888h4.744v16.061h7.139v-21.06h-18.543l-.022.565a111.053 111.053 0 00-.131 3.826c-.021.938-.062 1.856-.103 2.793l-.006.119a48.637 48.637 0 01-.283 3.13c-.087.76-.196 1.52-.348 2.282-.218.913-.588 1.847-1.35 2.456-.173.13-.456.195-.674.239l-.167.026c-.24.04-.5.082-.747.082-.055 0-.109-.005-.163-.01a1.628 1.628 0 00-.164-.011c-.054 0-.108-.006-.163-.011a1.487 1.487 0 00-.163-.011h-.871v5.52l.544.066c.244.028.507.038.764.047.132.005.264.01.39.018.544.043 1.11.065 1.676.065.827 0 1.632-.152 2.438-.391.761-.261 1.48-.609 2.089-1.13.435-.348.827-.805 1.175-1.24.501-.651.893-1.412 1.197-2.151.436-1 .719-2.13.936-3.195.327-1.5.479-3.043.588-4.564l.065-.967.065-.967.003-.06a37.09 37.09 0 01.085-1.527zm-27.598 0h4.766v16.061h7.14v-21.06H73.042l-.022.565-.004.124c-.042 1.24-.084 2.46-.105 3.702a65.196 65.196 0 01-.13 2.912 72.806 72.806 0 01-.262 3.13 20.6 20.6 0 01-.37 2.282c-.196.913-.587 1.847-1.349 2.456-.174.13-.457.195-.653.239l-.221.033a4.577 4.577 0 01-.693.075c-.054 0-.114-.005-.174-.01a1.806 1.806 0 00-.174-.011c-.055 0-.104-.006-.153-.011a1.22 1.22 0 00-.152-.011h-.871v5.52l.523.066c.243.028.506.038.763.047.133.005.264.01.39.018.566.043 1.132.065 1.676.065.827 0 1.654-.152 2.438-.391.762-.261 1.48-.609 2.111-1.13.435-.348.827-.805 1.175-1.24.48-.651.87-1.412 1.197-2.151.436-1 .719-2.13.936-3.195.305-1.5.48-3.043.588-4.564l.008-.116c.04-.61.08-1.205.1-1.818a37 37 0 00.085-1.527l.003-.06zM49.34 36.687c.218-.652.566-1.325 1.045-1.825.413-.435.914-.826 1.48-1.022a4.978 4.978 0 011.784-.304c.61 0 1.197.108 1.763.326a3.881 3.881 0 011.48 1c.5.521.806 1.195 1.045 1.847.305.891.413 1.89.413 2.825 0 .892-.065 1.957-.391 2.826-.24.652-.566 1.282-1.045 1.826a3.73 3.73 0 01-1.458 1 4.767 4.767 0 01-1.807.347 5.111 5.111 0 01-1.806-.326c-.566-.196-1.067-.565-1.48-1.021a5.025 5.025 0 01-1.045-1.804c-.326-.891-.392-1.913-.392-2.847 0-.935.087-1.935.414-2.848z" fill="#fff"/></svg>