<svg xmlns="http://www.w3.org/2000/svg" xmlns:xlink="http://www.w3.org/1999/xlink"><symbol id="icon-arrow"><path d="M40.707 8.92a1 1 0 000-1.414l-6.364-6.364a1 1 0 10-1.414 1.415l5.657 5.657-5.657 5.656a1 1 0 001.414 1.415l6.364-6.364zM0 9.214h40v-2H0v2z" fill="#fff"/></symbol><symbol id="icon-burger"><path stroke="#000" stroke-width="2" d="M0 1h30M0 9h30M0 17h30"/></symbol><symbol id="icon-close"><path d="M9.466 8.752l6.23-6.23a1.035 1.035 0 10-1.466-1.466L8 7.286l-6.23-6.23A1.036 1.036 0 10.304 2.522l6.23 6.23-6.23 6.23a1.035 1.035 0 00.733 1.77c.265 0 .53-.102.733-.304L8 10.218l6.23 6.23a1.034 1.034 0 001.466 0 1.035 1.035 0 000-1.466l-6.23-6.23z"/></symbol><symbol id="icon-insta"><path d="M17.536.577H6.724C3.052.577.065 3.559.065 7.224v10.793c0 3.666 2.987 6.647 6.659 6.647h10.812c3.672 0 6.66-2.982 6.66-6.647V7.224c0-3.665-2.988-6.647-6.66-6.647zm4.519 17.44a4.52 4.52 0 01-4.519 4.51H6.724a4.52 4.52 0 01-4.518-4.51V7.224a4.52 4.52 0 014.518-4.51h10.812a4.52 4.52 0 014.518 4.51v10.793z" fill="#fff"/><path d="M12.13 6.414c-3.428 0-6.218 2.784-6.218 6.207 0 3.422 2.79 6.206 6.218 6.206 3.429 0 6.218-2.784 6.218-6.206 0-3.423-2.79-6.207-6.218-6.207zm0 10.276a4.078 4.078 0 01-4.077-4.07 4.078 4.078 0 018.154 0 4.078 4.078 0 01-4.077 4.07zm6.479-12.088a1.573 1.573 0 00-1.57 1.567c0 .412.168.816.46 1.109.292.29.697.458 1.11.458a1.59 1.59 0 001.11-.458 1.57 1.57 0 000-2.217 1.578 1.578 0 00-1.11-.46z" fill="#fff"/></symbol><symbol id="icon-instagram"><path d="M11.585 0h-7.17A4.42 4.42 0 000 4.415v7.17A4.42 4.42 0 004.415 16h7.17A4.42 4.42 0 0016 11.585v-7.17A4.42 4.42 0 0011.585 0zm2.995 11.585a3 3 0 01-2.995 2.995h-7.17a3 3 0 01-2.995-2.995v-7.17A3 3 0 014.415 1.42h7.17a3 3 0 012.995 2.995v7.17z"/><path d="M8 3.877A4.127 4.127 0 003.877 8 4.127 4.127 0 008 12.123 4.127 4.127 0 0012.123 8 4.127 4.127 0 008 3.877zm0 6.826A2.706 2.706 0 015.297 8 2.706 2.706 0 018 5.297 2.706 2.706 0 0110.703 8 2.706 2.706 0 018 10.703zm4.296-8.029a1.045 1.045 0 00-1.041 1.04c0 .274.111.543.305.737.193.193.462.305.736.305.274 0 .542-.112.736-.305a1.046 1.046 0 000-1.473 1.046 1.046 0 00-.736-.304z"/></symbol><symbol id="icon-search"><path d="M7.046 0A7.054 7.054 0 000 7.046a7.054 7.054 0 007.046 7.046 7.054 7.054 0 007.046-7.046A7.054 7.054 0 007.046 0zm0 12.791a5.752 5.752 0 01-5.745-5.745 5.752 5.752 0 015.745-5.745 5.752 5.752 0 015.745 5.745 5.752 5.752 0 01-5.745 5.745z"/><path d="M15.81 14.89l-3.73-3.73a.65.65 0 10-.92.92l3.73 3.73a.648.648 0 00.92 0 .65.65 0 000-.92z"/></symbol><symbol id="icon-vk"><path d="M14.169 16c4.05 0 2.606-2.345 2.919-3.019-.005-.503-.01-.987.01-1.282.256.066.861.347 2.112 1.458C21.14 14.94 21.634 16 23.194 16h2.871c.91 0 1.384-.345 1.62-.634.23-.28.454-.77.209-1.534-.641-1.838-4.377-5.014-4.609-5.349.035-.062.091-.144.12-.186h-.002c.737-.891 3.551-4.746 3.966-6.288A.018.018 0 0027.37 2c.224-.704.019-1.16-.194-1.419C26.857.195 26.35 0 25.662 0H22.79c-.962 0-1.69.443-2.06 1.25-.617 1.435-2.35 4.385-3.65 5.43a62.28 62.28 0 01.008-3.45C17.13 1.594 17.266 0 15.407 0h-4.513C9.731 0 8.617 1.163 9.823 2.543c1.055 1.21.38 1.884.607 5.24-.887-.87-2.464-3.218-3.58-6.218C6.539.753 6.065 0 4.73 0H1.86C.695.001 0 .581 0 1.553 0 3.735 5.284 16 14.169 16zM4.731 1.601c.253 0 .279 0 .466.488 1.143 3.075 3.705 7.625 5.576 7.625 1.406 0 1.406-1.317 1.406-1.813l-.002-3.949c-.076-1.307-.597-1.957-.939-2.352l4.093.004c.002.018-.023 4.368.012 5.422 0 1.497 1.3 2.354 3.328.477 2.14-2.21 3.621-5.512 3.68-5.646.088-.192.164-.257.44-.257h2.882c0 .003 0 .006-.002.01-.262 1.12-2.854 4.689-3.72 5.797l-.04.053c-.382.57-.692 1.2.052 2.085h.002c.067.074.243.25.5.492.798.753 3.535 3.328 3.778 4.352-.161.024-.336.007-3.049.012-.577 0-1.029-.79-2.752-2.379-1.55-1.378-2.555-1.94-3.47-1.94-1.779 0-1.65 1.318-1.633 2.914.006 1.73-.006 1.183.007 1.292-.104.037-.401.112-1.177.112C6.767 14.4 1.946 3.658 1.76 1.604c.065-.005.948-.002 2.97-.003z"/></symbol></svg>