<svg xmlns="http://www.w3.org/2000/svg" xmlns:xlink="http://www.w3.org/1999/xlink"><symbol id="icon-arrow"><path d="M40.707 8.92a1 1 0 000-1.414l-6.364-6.364a1 1 0 10-1.414 1.415l5.657 5.657-5.657 5.656a1 1 0 001.414 1.415l6.364-6.364zM0 9.214h40v-2H0v2z" fill="#fff"/></symbol><symbol id="icon-burger"><path stroke="#000" stroke-width="2" d="M0 1h30M0 9h30M0 17h30"/></symbol><symbol id="icon-burgersvg"><path stroke="#000" stroke-width="2" d="M0 1h30M0 9h30M0 17h30"/></symbol><symbol id="icon-close"><path d="M9.466 8.752l6.23-6.23a1.035 1.035 0 10-1.466-1.466L8 7.286l-6.23-6.23A1.036 1.036 0 10.304 2.522l6.23 6.23-6.23 6.23a1.035 1.035 0 00.733 1.77c.265 0 .53-.102.733-.304L8 10.218l6.23 6.23a1.034 1.034 0 001.466 0 1.035 1.035 0 000-1.466l-6.23-6.23z"/></symbol><symbol id="icon-insta" viewBox="0 0 25 25">
<path d="M17.5362 0.576782H6.72405C3.05229 0.576782 0.0650635 3.55884 0.0650635 7.22409V18.0171C0.0650635 21.6825 3.05229 24.6644 6.72405 24.6644H17.5362C21.2083 24.6644 24.1955 21.6823 24.1955 18.0171V7.22409C24.1956 3.55884 21.2083 0.576782 17.5362 0.576782ZM22.0547 18.0171C22.0547 20.504 20.0277 22.5272 17.5364 22.5272H6.72405C4.23282 22.5273 2.20603 20.504 2.20603 18.0171V7.22409C2.20603 4.73728 4.23282 2.71395 6.72405 2.71395H17.5362C20.0276 2.71395 22.0545 4.73728 22.0545 7.22409V18.0171H22.0547Z" fill="white"/>
<path d="M12.1303 6.41418C8.70173 6.41418 5.91248 9.19849 5.91248 12.6209C5.91248 16.0433 8.70173 18.8274 12.1303 18.8274C15.5588 18.8274 18.3481 16.0433 18.3481 12.6209C18.3481 9.19849 15.5588 6.41418 12.1303 6.41418ZM12.1303 16.6901C9.8824 16.6901 8.05345 14.8647 8.05345 12.6208C8.05345 10.3768 9.88226 8.55121 12.1303 8.55121C14.3783 8.55121 16.2071 10.3768 16.2071 12.6208C16.2071 14.8647 14.3782 16.6901 12.1303 16.6901Z" fill="white"/>
<path d="M18.6086 4.60181C18.1961 4.60181 17.7909 4.76851 17.4996 5.06059C17.2069 5.35124 17.0386 5.75588 17.0386 6.16906C17.0386 6.58097 17.207 6.98546 17.4996 7.27754C17.7908 7.5682 18.1961 7.73632 18.6086 7.73632C19.0225 7.73632 19.4265 7.5682 19.7191 7.27754C20.0117 6.98546 20.1787 6.58082 20.1787 6.16906C20.1787 5.75588 20.0117 5.35124 19.7191 5.06059C19.4279 4.76851 19.0225 4.60181 18.6086 4.60181Z" fill="white"/>
</symbol><symbol id="icon-instagram"><path d="M11.585 0h-7.17A4.42 4.42 0 000 4.415v7.17A4.42 4.42 0 004.415 16h7.17A4.42 4.42 0 0016 11.585v-7.17A4.42 4.42 0 0011.585 0zm2.995 11.585a3 3 0 01-2.995 2.995h-7.17a3 3 0 01-2.995-2.995v-7.17A3 3 0 014.415 1.42h7.17a3 3 0 012.995 2.995v7.17z"/><path d="M8 3.877A4.127 4.127 0 003.877 8 4.127 4.127 0 008 12.123 4.127 4.127 0 0012.123 8 4.127 4.127 0 008 3.877zm0 6.826A2.706 2.706 0 015.297 8 2.706 2.706 0 018 5.297 2.706 2.706 0 0110.703 8 2.706 2.706 0 018 10.703zm4.296-8.029a1.045 1.045 0 00-1.041 1.04c0 .274.111.543.305.737.193.193.462.305.736.305.274 0 .542-.112.736-.305a1.046 1.046 0 000-1.473 1.046 1.046 0 00-.736-.304z"/></symbol><symbol id="icon-search"><path d="M7.046 0A7.054 7.054 0 000 7.046a7.054 7.054 0 007.046 7.046 7.054 7.054 0 007.046-7.046A7.054 7.054 0 007.046 0zm0 12.791a5.752 5.752 0 01-5.745-5.745 5.752 5.752 0 015.745-5.745 5.752 5.752 0 015.745 5.745 5.752 5.752 0 01-5.745 5.745z"/><path d="M15.81 14.89l-3.73-3.73a.65.65 0 10-.92.92l3.73 3.73a.648.648 0 00.92 0 .65.65 0 000-.92z"/></symbol><symbol id="icon-vk"><path d="M14.169 16c4.05 0 2.606-2.345 2.919-3.019-.005-.503-.01-.987.01-1.282.256.066.861.347 2.112 1.458C21.14 14.94 21.634 16 23.194 16h2.871c.91 0 1.384-.345 1.62-.634.23-.28.454-.77.209-1.534-.641-1.838-4.377-5.014-4.609-5.349.035-.062.091-.144.12-.186h-.002c.737-.891 3.551-4.746 3.966-6.288A.018.018 0 0027.37 2c.224-.704.019-1.16-.194-1.419C26.857.195 26.35 0 25.662 0H22.79c-.962 0-1.69.443-2.06 1.25-.617 1.435-2.35 4.385-3.65 5.43a62.28 62.28 0 01.008-3.45C17.13 1.594 17.266 0 15.407 0h-4.513C9.731 0 8.617 1.163 9.823 2.543c1.055 1.21.38 1.884.607 5.24-.887-.87-2.464-3.218-3.58-6.218C6.539.753 6.065 0 4.73 0H1.86C.695.001 0 .581 0 1.553 0 3.735 5.284 16 14.169 16zM4.731 1.601c.253 0 .279 0 .466.488 1.143 3.075 3.705 7.625 5.576 7.625 1.406 0 1.406-1.317 1.406-1.813l-.002-3.949c-.076-1.307-.597-1.957-.939-2.352l4.093.004c.002.018-.023 4.368.012 5.422 0 1.497 1.3 2.354 3.328.477 2.14-2.21 3.621-5.512 3.68-5.646.088-.192.164-.257.44-.257h2.882c0 .003 0 .006-.002.01-.262 1.12-2.854 4.689-3.72 5.797l-.04.053c-.382.57-.692 1.2.052 2.085h.002c.067.074.243.25.5.492.798.753 3.535 3.328 3.778 4.352-.161.024-.336.007-3.049.012-.577 0-1.029-.79-2.752-2.379-1.55-1.378-2.555-1.94-3.47-1.94-1.779 0-1.65 1.318-1.633 2.914.006 1.73-.006 1.183.007 1.292-.104.037-.401.112-1.177.112C6.767 14.4 1.946 3.658 1.76 1.604c.065-.005.948-.002 2.97-.003z"/></symbol></svg>