<svg width="25" height="25" fill="none" xmlns="http://www.w3.org/2000/svg"><path d="M17.536.577H6.724C3.052.577.065 3.559.065 7.224v10.793c0 3.666 2.987 6.647 6.659 6.647h10.812c3.672 0 6.66-2.982 6.66-6.647V7.224c0-3.665-2.988-6.647-6.66-6.647zm4.519 17.44a4.52 4.52 0 01-4.519 4.51H6.724a4.52 4.52 0 01-4.518-4.51V7.224a4.52 4.52 0 014.518-4.51h10.812a4.52 4.52 0 014.518 4.51v10.793z" fill="#fff"/><path d="M12.13 6.414c-3.428 0-6.218 2.784-6.218 6.207 0 3.422 2.79 6.206 6.218 6.206 3.429 0 6.218-2.784 6.218-6.206 0-3.423-2.79-6.207-6.218-6.207zm0 10.276a4.078 4.078 0 01-4.077-4.07 4.078 4.078 0 018.154 0 4.078 4.078 0 01-4.077 4.07zm6.479-12.088a1.573 1.573 0 00-1.57 1.567c0 .412.168.816.46 1.109.292.29.697.458 1.11.458a1.59 1.59 0 001.11-.458 1.57 1.57 0 000-2.217 1.578 1.578 0 00-1.11-.46z" fill="#fff"/></svg>