<svg width="28" height="16" xmlns="http://www.w3.org/2000/svg"><path d="M14.169 16c4.05 0 2.606-2.345 2.919-3.019-.005-.503-.01-.987.01-1.282.256.066.861.347 2.112 1.458C21.14 14.94 21.634 16 23.194 16h2.871c.91 0 1.384-.345 1.62-.634.23-.28.454-.77.209-1.534-.641-1.838-4.377-5.014-4.609-5.349.035-.062.091-.144.12-.186h-.002c.737-.891 3.551-4.746 3.966-6.288A.018.018 0 0027.37 2c.224-.704.019-1.16-.194-1.419C26.857.195 26.35 0 25.662 0H22.79c-.962 0-1.69.443-2.06 1.25-.617 1.435-2.35 4.385-3.65 5.43a62.28 62.28 0 01.008-3.45C17.13 1.594 17.266 0 15.407 0h-4.513C9.731 0 8.617 1.163 9.823 2.543c1.055 1.21.38 1.884.607 5.24-.887-.87-2.464-3.218-3.58-6.218C6.539.753 6.065 0 4.73 0H1.86C.695.001 0 .581 0 1.553 0 3.735 5.284 16 14.169 16zM4.731 1.601c.253 0 .279 0 .466.488 1.143 3.075 3.705 7.625 5.576 7.625 1.406 0 1.406-1.317 1.406-1.813l-.002-3.949c-.076-1.307-.597-1.957-.939-2.352l4.093.004c.002.018-.023 4.368.012 5.422 0 1.497 1.3 2.354 3.328.477 2.14-2.21 3.621-5.512 3.68-5.646.088-.192.164-.257.44-.257h2.882c0 .003 0 .006-.002.01-.262 1.12-2.854 4.689-3.72 5.797l-.04.053c-.382.57-.692 1.2.052 2.085h.002c.067.074.243.25.5.492.798.753 3.535 3.328 3.778 4.352-.161.024-.336.007-3.049.012-.577 0-1.029-.79-2.752-2.379-1.55-1.378-2.555-1.94-3.47-1.94-1.779 0-1.65 1.318-1.633 2.914.006 1.73-.006 1.183.007 1.292-.104.037-.401.112-1.177.112C6.767 14.4 1.946 3.658 1.76 1.604c.065-.005.948-.002 2.97-.003z"/></svg>