<svg width="130" height="61" fill="none" xmlns="http://www.w3.org/2000/svg"><path fill-rule="evenodd" clip-rule="evenodd" d="M130 22.056H0V0h130v22.056zm0 38.33H0V24.224h130v36.162z" fill="#E52D29"/><path fill-rule="evenodd" clip-rule="evenodd" d="M16.253 19.055c-1.426 0-2.852-.306-3.992-1.248-1.075-.876-1.492-2.103-1.492-3.483 0-1.358.44-2.54 1.492-3.46 1.119-.942 2.566-1.27 4.014-1.27.395 0 .79.021 1.184.065.33.022.68.088 1.01.153.284.066.547.154.832.263.22.066.483.153.702.263l.132.044v2.43h-.548l-.066-.043a9.174 9.174 0 00-.483-.328 4.688 4.688 0 00-.658-.373 4.185 4.185 0 00-.79-.284 3.08 3.08 0 00-.898-.132c-.33 0-.68.044-1.01.132a3.283 3.283 0 00-.855.481 2.37 2.37 0 00-.614.833c-.175.372-.241.81-.241 1.226 0 .438.066.898.263 1.27.153.33.35.614.636.833.263.197.548.328.877.416.307.11.636.153.965.153.33 0 .658-.043.965-.131.264-.088.549-.175.79-.307.22-.11.417-.219.614-.35.154-.11.33-.22.483-.329l.044-.043h.526v2.409l-.132.044c-.24.087-.46.175-.701.262a11.38 11.38 0 01-.812.241l-.987.197c-.395.044-.834.066-1.25.066zm87.12-7.118h-2.194c-.022.219-.043.46-.043.7-.022.263-.044.548-.066.833-.044.657-.11 1.314-.263 1.971-.11.46-.22.942-.417 1.38a5.05 5.05 0 01-.549.942 3.98 3.98 0 01-.526.526 3.204 3.204 0 01-.943.481c-.373.11-.724.176-1.097.176-.263 0-.504-.022-.767-.022-.176-.022-.351-.022-.527-.044l-.22-.022v-2.365h.659c.153 0 .285-.022.439-.044a.584.584 0 00.307-.11c.35-.24.526-.657.614-1.073.087-.307.131-.635.175-.964.044-.46.088-.898.11-1.358l.066-1.27c0-.548.022-1.095.043-1.643l.022-.24h8.379v9.089h-3.202v-6.943zm-12.81 5.476H87.12l-.526 1.467H83.04l4.014-9.09h3.663l4.014 9.09H91.09l-.526-1.467zm-.767-2.169l-.943-2.672-.965 2.672h1.908zm25.267 2.169h-3.443l-.527 1.467h-3.553l4.014-9.09h3.685l3.992 9.09h-3.641l-.527-1.467zm-.767-2.169l-.943-2.672-.966 2.672h1.909zm-81.593-.92c0 1.38-.439 2.585-1.47 3.483-1.118.942-2.544 1.248-3.97 1.248-1.425 0-2.873-.306-3.97-1.27-1.03-.898-1.47-2.103-1.47-3.46 0-1.337.44-2.541 1.47-3.461 1.097-.942 2.545-1.249 3.97-1.249 1.426 0 2.852.307 3.97 1.249 1.031.898 1.47 2.102 1.47 3.46zm-6.931-2.015c-.22.22-.373.504-.483.789-.153.394-.197.832-.197 1.226 0 .416.044.854.175 1.227.11.306.264.57.483.81.197.197.439.35.702.438.263.088.526.132.811.132.286 0 .57-.044.834-.154.263-.087.482-.24.68-.438.22-.219.373-.503.482-.788.132-.373.176-.832.176-1.227 0-.394-.044-.832-.198-1.226-.11-.285-.24-.57-.46-.789a1.732 1.732 0 00-.68-.438 2.673 2.673 0 00-.834-.153 2.62 2.62 0 00-.811.131c-.263.088-.483.263-.68.46zm15.573-.372H39.13c0 .219-.023.46-.044.7 0 .263-.022.548-.044.833a15.162 15.162 0 01-.264 1.971c-.11.46-.24.942-.438 1.38a3.977 3.977 0 01-.527.942c-.175.175-.35.372-.548.526-.263.219-.592.372-.943.481-.351.11-.724.176-1.097.176-.241 0-.504-.022-.745-.022-.176-.022-.351-.022-.527-.044l-.22-.022v-2.365h.659c.131 0 .285-.022.417-.044.11 0 .24-.044.329-.11.329-.24.526-.657.614-1.073.066-.307.131-.635.153-.964.066-.46.11-.898.132-1.358.022-.416.044-.854.044-1.27l.066-1.643v-.24h8.4v9.089h-3.202v-6.943zm16.099 2.387c0 1.38-.439 2.585-1.47 3.483-1.118.942-2.544 1.248-3.97 1.248-1.425 0-2.873-.306-3.97-1.27-1.03-.898-1.47-2.103-1.47-3.46 0-1.337.44-2.541 1.47-3.461 1.097-.942 2.545-1.249 3.97-1.249 1.426 0 2.852.307 3.97 1.249 1.031.898 1.47 2.102 1.47 3.46zm-6.931-2.015c-.22.22-.373.504-.483.789-.153.394-.197.832-.197 1.226 0 .416.044.854.175 1.227.11.306.264.57.483.81.197.197.439.35.702.438.263.088.526.132.811.132.286 0 .57-.044.834-.154.263-.087.482-.24.68-.438.22-.219.373-.503.482-.788.132-.373.176-.832.176-1.227 0-.394-.044-.832-.198-1.226-.11-.285-.24-.57-.46-.789a1.732 1.732 0 00-.68-.438c-.285-.088-.548-.153-.834-.153a2.62 2.62 0 00-.811.131c-.263.088-.483.263-.68.46zm16.977 2.3l-1.536 4.03h-2.171l-1.536-4.03v4.27h-3.026V9.79h3.509l2.215 5.367L67.14 9.79h3.53v9.09h-3.18v-4.271zm9.014-2.672v1.073h1.514c.592 0 1.184.022 1.754.11a3.832 3.832 0 011.47.547c.395.241.702.548.9.964.197.394.284.81.284 1.248 0 .46-.11.898-.329 1.293-.22.372-.526.7-.899.941a4.281 4.281 0 01-1.426.592c-.57.131-1.206.175-1.798.175h-4.65V9.79h8.29v2.147h-5.11zm2.588 3.68a.567.567 0 00-.153-.242 1.936 1.936 0 00-.439-.197 4.11 4.11 0 00-.877-.087h-1.119v1.686h1.119c.373 0 .833-.044 1.162-.24.242-.132.373-.33.373-.592a.877.877 0 00-.066-.329zM66.151 39.84c0 3.133-.92 5.958-3.268 8.105-2.434 2.19-5.614 2.935-8.839 2.935-3.246 0-6.426-.745-8.86-2.98-2.304-2.146-3.247-4.95-3.247-8.06 0-3.11.921-5.935 3.246-8.06 2.435-2.233 5.637-2.956 8.861-2.956 3.225 0 6.405.723 8.84 2.935 2.346 2.124 3.267 4.972 3.267 8.082zm-36.256.702l-3.706 9.746h-5.264l-3.707-9.746v10.316H9.87V28.824h8.51l5.352 12.243 5.33-12.243h8.532v22.034h-7.699V40.542zm83.019-6.264h-4.782c-.044.525-.065 1.073-.087 1.598l-.132 1.95c-.11 1.533-.263 3.088-.592 4.6-.22 1.072-.505 2.211-.943 3.219-.307.745-.702 1.511-1.207 2.168-.351.438-.745.898-1.184 1.249-.614.525-1.338.876-2.106 1.139-.811.24-1.623.394-2.456.394-.57 0-1.14-.022-1.69-.066-.372-.022-.789-.022-1.162-.066l-.548-.065v-5.564h.877c.11 0 .22.022.33.022.109 0 .219.022.328.022.307 0 .636-.065.922-.11.219-.043.504-.109.68-.24.767-.613 1.14-1.555 1.359-2.475a27.25 27.25 0 00.351-2.3c.132-1.03.22-2.102.285-3.154.044-.985.088-1.95.11-2.935.022-1.292.066-2.562.132-3.855l.022-.57h18.687v21.225h-7.194V34.278zm-27.79 0h-4.803c-.022.525-.044 1.073-.088 1.598-.022.657-.066 1.293-.11 1.95-.11 1.533-.285 3.088-.592 4.6-.22 1.072-.505 2.211-.943 3.219-.33.745-.724 1.511-1.206 2.168-.351.438-.746.898-1.185 1.249-.636.525-1.36.876-2.127 1.139-.79.24-1.623.394-2.457.394-.548 0-1.119-.022-1.689-.066-.373-.022-.79-.022-1.162-.066l-.527-.065v-5.564h.878c.11 0 .197.022.307.022.11 0 .24.022.35.022.286 0 .615-.065.922-.11.197-.043.482-.109.658-.24.768-.613 1.162-1.555 1.36-2.475.175-.767.285-1.533.373-2.3.11-1.03.197-2.102.263-3.154.066-.985.11-1.95.131-2.935.022-1.292.066-2.562.11-3.855l.022-.57h18.71v21.225h-7.195V34.278zm-34.348.854c-.482.503-.833 1.182-1.053 1.84-.329.92-.416 1.927-.416 2.869 0 .941.065 1.971.394 2.869.22.657.57 1.292 1.053 1.818.417.46.921.832 1.492 1.03a5.15 5.15 0 001.82.328c.614 0 1.228-.11 1.82-.35a3.76 3.76 0 001.47-1.008c.483-.548.812-1.183 1.053-1.84.329-.876.395-1.95.395-2.847 0-.942-.11-1.95-.417-2.848-.241-.657-.548-1.336-1.053-1.861a3.912 3.912 0 00-1.491-1.008 4.912 4.912 0 00-1.777-.328c-.614 0-1.228.087-1.798.306-.57.197-1.075.592-1.492 1.03z" fill="#FEFEFE"/></svg>