<svg width="170" height="80" fill="none" xmlns="http://www.w3.org/2000/svg"><path fill-rule="evenodd" clip-rule="evenodd" d="M0 29.594h170V.752H0v28.842zm16.033-5.556c1.492 1.231 3.356 1.632 5.22 1.632.546 0 1.12-.028 1.635-.086l1.291-.258c.344-.085.717-.2 1.061-.314.158-.058.309-.115.46-.172.15-.058.3-.115.458-.172l.172-.058v-3.15h-.688l-.057.057c-.1.072-.208.143-.316.215-.107.072-.215.143-.315.215a7.295 7.295 0 01-.803.458c-.281.153-.607.26-.918.363l-.115.038a4.631 4.631 0 01-1.262.172c-.43 0-.86-.057-1.262-.2a3.262 3.262 0 01-1.147-.545c-.373-.286-.631-.659-.832-1.088-.258-.487-.344-1.088-.344-1.661 0-.545.086-1.117.315-1.604.2-.43.459-.802.803-1.089a4.296 4.296 0 011.119-.63 5.24 5.24 0 011.32-.172c.4 0 .802.058 1.175.172.373.086.717.23 1.033.372.315.144.602.316.86.487.23.144.43.287.631.43l.086.057h.717v-3.179l-.172-.057a5.975 5.975 0 00-.918-.344 7.98 7.98 0 00-1.09-.344c-.43-.085-.889-.171-1.319-.2a14.031 14.031 0 00-1.549-.086c-1.893 0-3.786.43-5.249 1.661-1.376 1.203-1.95 2.75-1.95 4.526 0 1.804.545 3.408 1.95 4.554zm116.278-7.676h2.869v9.08h4.187V13.554h-10.956l-.029.315a53.105 53.105 0 00-.057 2.148l-.043.83-.043.831c-.027.554-.078 1.083-.13 1.632l-.014.144c-.057.43-.115.86-.229 1.26-.115.544-.345 1.089-.803 1.404a.763.763 0 01-.402.143l-.067.01a3.4 3.4 0 01-.507.047h-.86v3.094l.287.028c.114.014.229.022.344.029.115.007.229.014.344.028.172 0 .337.008.502.015.165.007.33.014.502.014a4.97 4.97 0 001.434-.23c.43-.142.861-.343 1.233-.63.259-.2.488-.458.689-.687.287-.372.516-.802.717-1.231.245-.544.387-1.14.523-1.714l.022-.09c.201-.86.287-1.72.344-2.578.029-.373.057-.745.086-1.089 0-.315.029-.63.057-.916zm-18.385 7.16h4.503l.689 1.92h4.761l-5.249-11.887h-4.79l-5.249 11.886h4.647l.688-1.919zm2.266-6.33l1.233 3.495h-2.495l1.262-3.495zm29.772 6.33h4.503l.689 1.92h4.761l-5.22-11.887h-4.819l-5.249 11.886h4.647l.688-1.919zm2.266-6.33l1.233 3.495h-2.495l1.262-3.495zM40.844 24.038c1.348-1.175 1.921-2.75 1.921-4.554 0-1.776-.573-3.352-1.921-4.526-1.463-1.231-3.328-1.632-5.192-1.632-1.864 0-3.757.4-5.191 1.632-1.348 1.203-1.922 2.778-1.922 4.526 0 1.775.573 3.35 1.922 4.525 1.434 1.26 3.327 1.661 5.191 1.661 1.864 0 3.729-.4 5.192-1.632zM33.07 17.88c.143-.373.344-.745.63-1.031.259-.258.546-.487.89-.602a3.427 3.427 0 011.061-.172c.373 0 .746.086 1.09.2.344.115.631.316.89.574.286.286.458.658.602 1.03.2.516.258 1.09.258 1.605 0 .515-.058 1.117-.23 1.604-.143.372-.344.744-.63 1.03a2.265 2.265 0 01-.89.574c-.344.143-.717.2-1.09.2-.373 0-.717-.057-1.061-.172a2.365 2.365 0 01-.918-.573 3.066 3.066 0 01-.631-1.06c-.172-.486-.23-1.06-.23-1.603 0-.516.058-1.089.259-1.604zm18.098-1.518h2.897v9.08h4.188V13.554H47.268v.315l-.086 2.148c0 .544-.028 1.117-.057 1.661a18.614 18.614 0 01-.172 1.776 9.05 9.05 0 01-.2 1.26c-.116.544-.374 1.089-.804 1.404a.774.774 0 01-.43.143 3.525 3.525 0 01-.545.057h-.861v3.094l.287.028c.115.014.23.022.344.029.115.007.23.014.345.028.157 0 .322.008.487.015.165.007.33.014.488.014.487 0 .975-.086 1.434-.23.459-.142.889-.343 1.233-.63.194-.15.372-.333.546-.512.057-.06.114-.118.171-.175.287-.372.517-.802.689-1.231.258-.573.43-1.203.573-1.805.172-.859.287-1.718.344-2.577.03-.373.058-.745.058-1.089.029-.315.057-.63.057-.916zm22.028 7.676c1.348-1.175 1.922-2.75 1.922-4.554 0-1.776-.574-3.352-1.922-4.526-1.463-1.231-3.327-1.632-5.191-1.632-1.865 0-3.758.4-5.192 1.632-1.348 1.203-1.922 2.778-1.922 4.526 0 1.775.574 3.35 1.922 4.525 1.434 1.26 3.327 1.661 5.192 1.661 1.864 0 3.728-.4 5.191-1.632zm-7.773-6.158c.144-.373.344-.745.631-1.031.258-.258.545-.487.89-.602a3.426 3.426 0 011.06-.172c.374 0 .718.086 1.09.2.345.115.632.316.89.574.287.286.459.658.602 1.03.2.516.258 1.09.258 1.605 0 .515-.057 1.117-.23 1.604-.143.372-.343.744-.63 1.03a2.266 2.266 0 01-.89.574 2.83 2.83 0 01-1.09.2 3.28 3.28 0 01-1.06-.172 2.367 2.367 0 01-.918-.573 3.066 3.066 0 01-.631-1.06c-.172-.486-.23-1.06-.23-1.603 0-.516.058-1.089.258-1.604zm20.824 7.246l2.007-5.27v5.585h4.16V13.555h-4.619l-2.868 7.017-2.897-7.017h-4.589V25.44H81.4v-5.585l2.008 5.27h2.84zm13.796-7.36v-1.404h6.683v-2.807H95.885V25.44h6.081c.774 0 1.606-.057 2.351-.229a5.601 5.601 0 001.865-.773 3.72 3.72 0 001.176-1.232 3.44 3.44 0 00.43-1.69c0-.573-.115-1.117-.373-1.632-.258-.545-.66-.946-1.176-1.26-.573-.373-1.233-.602-1.922-.717-.745-.114-1.52-.143-2.294-.143h-1.979zm3.184 3.092c.086.086.172.2.2.316.058.143.086.286.086.43 0 .343-.172.6-.487.772-.43.258-1.033.316-1.52.316h-1.463v-2.206h1.463c.344 0 .774.029 1.147.115.172.057.401.143.574.257zM0 79.718h170V32.43H0v47.288zm82.232-16.27c3.07-2.806 4.274-6.5 4.274-10.597 0-4.067-1.205-7.79-4.274-10.569-3.183-2.892-7.343-3.837-11.559-3.837-4.216 0-8.404.945-11.587 3.866-3.04 2.778-4.245 6.473-4.245 10.54 0 4.068 1.233 7.734 4.245 10.54 3.183 2.922 7.342 3.896 11.587 3.896 4.216 0 8.376-.974 11.56-3.838zm-47.985 3.065l4.847-12.745v13.49h10.067V38.445H38.004l-6.97 16.01-6.998-16.01H12.907v28.813h9.609v-13.49l4.847 12.745h6.884zm107.157-20.937h6.253v21.167h9.407V38.989h-24.437l-.029.744c-.086 1.69-.143 3.352-.172 5.041-.027 1.236-.081 2.445-.136 3.679l-.007.16a64.81 64.81 0 01-.373 4.124 36.31 36.31 0 01-.459 3.007c-.287 1.203-.774 2.435-1.778 3.237-.23.172-.603.258-.889.315-.072.01-.145.023-.221.035-.316.052-.659.108-.984.108-.072 0-.143-.007-.215-.014a1.959 1.959 0 00-.215-.015c-.072 0-.144-.007-.215-.014a2.176 2.176 0 00-.216-.014h-1.147v7.275l.717.086c.321.037.668.05 1.006.063.175.006.348.013.514.023.717.057 1.463.086 2.209.086 1.09 0 2.151-.201 3.212-.516 1.004-.344 1.951-.802 2.754-1.49.574-.458 1.09-1.06 1.549-1.632.659-.86 1.176-1.862 1.577-2.836.574-1.317.947-2.806 1.234-4.21.43-1.976.631-4.01.774-6.015l.086-1.28.086-1.269.003-.08c.028-.663.057-1.35.112-2.01zm-36.369 0h6.281v21.167h9.408V38.989H96.258l-.029.744-.005.16a283.68 283.68 0 00-.138 4.881 85.967 85.967 0 01-.172 3.838 96.003 96.003 0 01-.344 4.125 27.51 27.51 0 01-.488 3.007c-.258 1.203-.774 2.435-1.778 3.237-.23.172-.603.258-.86.315-.097.013-.194.029-.292.044-.313.05-.63.099-.913.099-.072 0-.151-.007-.23-.014a2.352 2.352 0 00-.23-.015c-.071 0-.136-.007-.2-.014a1.758 1.758 0 00-.201-.014h-1.147v7.275l.688.086c.321.037.667.05 1.006.063.175.006.348.013.514.023.746.057 1.492.086 2.209.086 1.09 0 2.18-.201 3.212-.516 1.004-.344 1.95-.802 2.782-1.49.574-.458 1.09-1.06 1.549-1.632.631-.86 1.148-1.862 1.578-2.836.573-1.317.946-2.806 1.233-4.21.402-1.976.631-4.01.775-6.015l.01-.151c.054-.806.106-1.59.133-2.398.055-.661.084-1.349.111-2.012l.004-.079zM65.023 49.1c.287-.859.746-1.747 1.377-2.406.544-.572 1.204-1.088 1.95-1.346.746-.286 1.549-.4 2.352-.4.803 0 1.578.142 2.323.429.775.286 1.406.745 1.95 1.317.66.688 1.062 1.576 1.377 2.435.402 1.174.545 2.492.545 3.723 0 1.175-.086 2.578-.516 3.724-.316.859-.746 1.69-1.377 2.406a4.916 4.916 0 01-1.921 1.317 6.282 6.282 0 01-2.381.459 6.734 6.734 0 01-2.38-.43c-.746-.258-1.406-.745-1.951-1.346a6.623 6.623 0 01-1.377-2.378c-.43-1.174-.516-2.52-.516-3.752 0-1.231.115-2.549.545-3.752z" fill="#fff"/></svg>