<svg width="170" height="79" fill="none" xmlns="http://www.w3.org/2000/svg"><path fill-rule="evenodd" clip-rule="evenodd" d="M170 28.842H0V0h170v28.842zm0 50.124H0V31.678h170v47.288z" fill="#E52D29"/><path fill-rule="evenodd" clip-rule="evenodd" d="M21.254 24.918c-1.865 0-3.73-.4-5.22-1.632-1.406-1.146-1.951-2.75-1.951-4.554 0-1.776.574-3.323 1.95-4.526 1.463-1.231 3.356-1.66 5.25-1.66.515 0 1.032.028 1.548.085.43.029.89.115 1.32.2.372.086.717.201 1.09.344.286.086.63.2.917.344l.172.057v3.18h-.717l-.086-.058a12.49 12.49 0 00-.63-.43 6.134 6.134 0 00-.861-.486 5.485 5.485 0 00-1.033-.373 4.027 4.027 0 00-1.176-.172c-.43 0-.889.058-1.32.172-.4.143-.774.373-1.118.63-.344.287-.602.66-.803 1.089-.23.487-.315 1.06-.315 1.604 0 .573.086 1.174.344 1.661.2.43.459.802.832 1.088.344.258.717.43 1.147.544.401.144.832.201 1.262.201.43 0 .86-.057 1.262-.172.344-.114.717-.229 1.033-.4.286-.144.544-.287.803-.46.2-.142.43-.285.63-.429l.058-.057h.688v3.15l-.172.058c-.315.114-.602.229-.918.344-.344.114-.717.229-1.06.315l-1.291.257c-.517.058-1.09.086-1.635.086zM135.18 15.61h-2.869a9.458 9.458 0 00-.057.916c-.029.344-.057.716-.086 1.089-.057.859-.143 1.718-.344 2.578-.144.6-.287 1.231-.545 1.804-.201.43-.43.86-.717 1.232-.201.229-.43.486-.689.687a4.181 4.181 0 01-1.233.63c-.487.143-.946.23-1.434.23-.344 0-.66-.03-1.004-.03-.229-.028-.459-.028-.688-.057l-.287-.028v-3.094h.86c.201 0 .373-.028.574-.057a.763.763 0 00.402-.143c.458-.315.688-.86.803-1.404.114-.4.172-.83.229-1.26.058-.601.115-1.174.144-1.776l.086-1.66c0-.717.028-1.433.057-2.15l.029-.314h10.956v11.886h-4.187v-9.08zm-16.751 7.16h-4.503l-.688 1.92h-4.647l5.249-11.887h4.79l5.249 11.886h-4.761l-.689-1.919zm-1.004-2.835l-1.233-3.495-1.262 3.495h2.495zm33.042 2.835h-4.503l-.688 1.92h-4.647l5.249-11.887h4.819l5.22 11.886h-4.761l-.689-1.919zm-1.004-2.835l-1.233-3.495-1.262 3.495h2.495zM42.765 18.732c0 1.804-.573 3.38-1.921 4.554-1.463 1.231-3.328 1.632-5.192 1.632-1.864 0-3.757-.4-5.191-1.66-1.348-1.175-1.922-2.75-1.922-4.526 0-1.747.573-3.323 1.922-4.526 1.434-1.231 3.327-1.632 5.191-1.632 1.864 0 3.729.4 5.192 1.632 1.348 1.175 1.921 2.75 1.921 4.526zm-9.063-2.635c-.287.286-.488.659-.631 1.03-.201.516-.258 1.09-.258 1.605 0 .544.057 1.117.229 1.604.143.4.344.744.631 1.06.258.257.574.458.918.572.344.115.688.172 1.061.172a2.83 2.83 0 001.09-.2c.344-.115.631-.315.89-.573.286-.287.487-.659.63-1.031.172-.487.23-1.089.23-1.604 0-.516-.058-1.089-.258-1.604-.144-.372-.316-.745-.603-1.031a2.264 2.264 0 00-.889-.573 3.494 3.494 0 00-1.09-.2c-.344 0-.717.057-1.061.171-.344.115-.631.344-.89.602zm20.364-.487H51.17c0 .286-.028.601-.057.916 0 .344-.029.716-.058 1.089a19.825 19.825 0 01-.344 2.578c-.143.6-.315 1.231-.573 1.804-.172.43-.402.86-.689 1.232-.23.229-.459.486-.717.687-.344.286-.774.487-1.233.63-.459.143-.947.23-1.434.23-.316 0-.66-.03-.975-.03-.23-.028-.46-.028-.689-.057l-.287-.028v-3.094h.859c.173 0 .374-.028.546-.057a.774.774 0 00.43-.143c.43-.315.688-.86.803-1.404.086-.4.172-.83.2-1.26.087-.601.144-1.174.173-1.776.029-.544.057-1.117.057-1.66.03-.717.058-1.433.086-2.15v-.314h10.986v11.886h-4.188v-9.08zm21.053 3.122c0 1.804-.574 3.38-1.922 4.554-1.463 1.231-3.327 1.632-5.191 1.632-1.865 0-3.758-.4-5.192-1.66-1.348-1.175-1.922-2.75-1.922-4.526 0-1.747.574-3.323 1.922-4.526 1.434-1.231 3.327-1.632 5.192-1.632 1.864 0 3.728.4 5.191 1.632 1.348 1.175 1.922 2.75 1.922 4.526zm-9.064-2.635c-.287.286-.487.659-.63 1.03-.201.516-.259 1.09-.259 1.605 0 .544.058 1.117.23 1.604.143.4.344.744.63 1.06.259.257.574.458.919.572a3.28 3.28 0 001.06.172 2.83 2.83 0 001.09-.2c.345-.115.632-.315.89-.573.287-.287.487-.659.63-1.031.173-.487.23-1.089.23-1.604 0-.516-.057-1.089-.258-1.604-.143-.372-.315-.745-.602-1.031a2.263 2.263 0 00-.89-.573c-.372-.115-.716-.2-1.09-.2a3.44 3.44 0 00-1.06.171c-.345.115-.631.344-.89.602zm22.2 3.007l-2.007 5.27h-2.84l-2.008-5.27v5.585h-3.958V12.803h4.59l2.896 7.017 2.868-7.017h4.618v11.886h-4.159v-5.585zm11.789-3.494v1.403h1.979c.774 0 1.549.029 2.295.143.688.115 1.348.344 1.921.716.517.316.918.716 1.176 1.26a3.59 3.59 0 01.373 1.633 3.44 3.44 0 01-.43 1.69 3.72 3.72 0 01-1.176 1.232 5.605 5.605 0 01-1.864.773c-.746.172-1.578.23-2.352.23h-6.081V12.802h10.842v2.807h-6.683zm3.384 4.812a.734.734 0 00-.2-.316 2.552 2.552 0 00-.574-.257 5.369 5.369 0 00-1.147-.115h-1.463v2.206h1.463c.487 0 1.09-.058 1.52-.315.315-.172.487-.43.487-.774 0-.143-.028-.286-.086-.43zM86.506 52.1c0 4.095-1.205 7.79-4.274 10.597-3.183 2.864-7.342 3.838-11.559 3.838-4.245 0-8.404-.974-11.587-3.895-3.012-2.807-4.245-6.473-4.245-10.54 0-4.068 1.204-7.762 4.245-10.54 3.183-2.922 7.371-3.867 11.587-3.867 4.217 0 8.376.945 11.56 3.838 3.068 2.778 4.273 6.501 4.273 10.569zm-47.412.916l-4.847 12.746h-6.884l-4.847-12.746v13.49h-9.609V37.693h11.129l6.998 16.01 6.97-16.01h11.157v28.813H39.094v-13.49zm108.563-8.191h-6.253c-.058.687-.086 1.403-.115 2.09-.057.86-.115 1.69-.172 2.55-.143 2.004-.344 4.038-.774 6.014-.287 1.404-.66 2.893-1.234 4.21-.401.974-.918 1.977-1.577 2.836-.459.573-.975 1.174-1.549 1.633-.803.687-1.75 1.145-2.754 1.49-1.061.314-2.122.515-3.212.515a27.91 27.91 0 01-2.209-.086c-.487-.029-1.032-.029-1.52-.086l-.717-.086V58.63h1.147c.144 0 .287.028.431.028.143 0 .287.03.43.03.401 0 .832-.087 1.205-.144.286-.057.659-.143.889-.315 1.004-.802 1.491-2.034 1.778-3.237.201-1.002.344-2.005.459-3.007.172-1.346.287-2.75.373-4.124.057-1.29.115-2.55.143-3.838.029-1.69.086-3.352.172-5.042l.029-.744h24.437V65.99h-9.407V44.825zm-36.341 0h-6.281c-.029.687-.058 1.403-.115 2.09-.029.86-.086 1.69-.143 2.55-.144 2.004-.373 4.038-.775 6.014-.287 1.404-.66 2.893-1.233 4.21-.43.974-.947 1.977-1.578 2.836-.459.573-.975 1.174-1.549 1.633-.831.687-1.778 1.145-2.782 1.49-1.032.314-2.122.515-3.212.515-.717 0-1.463-.029-2.209-.086-.487-.029-1.032-.029-1.52-.086l-.688-.086V58.63h1.147c.143 0 .258.028.401.028.144 0 .316.03.46.03.372 0 .803-.087 1.204-.144.258-.057.631-.143.86-.315 1.005-.802 1.52-2.034 1.779-3.237.23-1.002.373-2.005.488-3.007a95.99 95.99 0 00.344-4.124 85.96 85.96 0 00.172-3.838c.029-1.69.086-3.352.143-5.042l.029-.744h24.466V65.99h-9.408V44.825zM66.4 45.94c-.631.66-1.09 1.547-1.377 2.406-.43 1.203-.545 2.52-.545 3.752 0 1.232.086 2.578.516 3.753.287.859.746 1.69 1.377 2.377.545.601 1.205 1.088 1.95 1.346a6.75 6.75 0 002.38.43 6.29 6.29 0 002.382-.459 4.918 4.918 0 001.921-1.317c.631-.716 1.061-1.547 1.377-2.406.43-1.146.516-2.55.516-3.724 0-1.231-.143-2.549-.545-3.723-.315-.86-.717-1.747-1.376-2.434-.545-.573-1.176-1.032-1.95-1.318a6.426 6.426 0 00-2.324-.43c-.803 0-1.606.115-2.352.401-.746.258-1.405.774-1.95 1.346z" fill="#FEFEFE"/></svg>